<svg width="80" height="80" viewBox="0 0 80 80" fill="none" xmlns="http://www.w3.org/2000/svg">
<path fill-rule="evenodd" clip-rule="evenodd" d="M40 5C35.3587 5 30.9075 6.84374 27.6256 10.1256C24.3437 13.4075 22.5 17.8587 22.5 22.5V32.5C19.8478 32.5 17.3043 33.5536 15.4289 35.4289C13.5536 37.3043 12.5 39.8478 12.5 42.5V65C12.5 67.6522 13.5536 70.1957 15.4289 72.0711C17.3043 73.9464 19.8478 75 22.5 75H57.5C60.1522 75 62.6957 73.9464 64.5711 72.0711C66.4464 70.1957 67.5 67.6522 67.5 65V42.5C67.5 39.8478 66.4464 37.3043 64.5711 35.4289C62.6957 33.5536 60.1522 32.5 57.5 32.5V22.5C57.5 12.8333 49.6667 5 40 5ZM52.5 32.5V22.5C52.5 19.1848 51.183 16.0054 48.8388 13.6612C46.4946 11.317 43.3152 10 40 10C36.6848 10 33.5054 11.317 31.1612 13.6612C28.817 16.0054 27.5 19.1848 27.5 22.5V32.5H52.5Z" fill="#3843D0"/>
<g filter="url(#filter0_d_462_8844)">
<rect x="9.3623" y="44.2553" width="61.2766" height="24.5106" rx="4.8" fill="#FAFAFA"/>
</g>
<rect width="41.2596" height="11.0298" transform="translate(17.124 51.6085)" fill="#FAFAFA"/>
<g clip-path="url(#clip0_462_8844)">
<path d="M27.0212 58.0743L30.0692 56.3144L28.3605 53.3542L25.3125 55.1142V51.6085H21.8945V55.1142L18.8465 53.3542L17.1377 56.3144L20.1857 58.0743L17.1377 59.8342L18.8465 62.7944L21.8945 61.0344V64.5685H25.3125V61.0344L28.3605 62.7944L30.0693 59.8342L27.0212 58.0743Z" fill="#9BA1E7"/>
</g>
<g clip-path="url(#clip1_462_8844)">
<path d="M44.781 58.0743L47.829 56.3144L46.1202 53.3542L43.0723 55.1142V51.6085H39.6542V55.1142L36.6063 53.3542L34.8975 56.3144L37.9455 58.0743L34.8975 59.8342L36.6063 62.7944L39.6542 61.0344V64.5685H43.0723V61.0344L46.1202 62.7944L47.829 59.8342L44.781 58.0743Z" fill="#9BA1E7"/>
</g>
<g clip-path="url(#clip2_462_8844)">
<path d="M62.5417 58.0743L65.5897 56.3144L63.881 53.3542L60.833 55.1142V51.6085H57.415V55.1142L54.367 53.3542L52.6582 56.3144L55.7063 58.0743L52.6582 59.8342L54.367 62.7944L57.415 61.0344V64.5685H60.833V61.0344L63.881 62.7944L65.5898 59.8342L62.5417 58.0743Z" fill="#9BA1E7"/>
</g>
<defs>
<filter id="filter0_d_462_8844" x="5.52231" y="44.2553" width="68.9564" height="32.1906" filterUnits="userSpaceOnUse" color-interpolation-filters="sRGB">
<feFlood flood-opacity="0" result="BackgroundImageFix"/>
<feColorMatrix in="SourceAlpha" type="matrix" values="0 0 0 0 0 0 0 0 0 0 0 0 0 0 0 0 0 0 127 0" result="hardAlpha"/>
<feOffset dy="3.84"/>
<feGaussianBlur stdDeviation="1.92"/>
<feComposite in2="hardAlpha" operator="out"/>
<feColorMatrix type="matrix" values="0 0 0 0 0.921569 0 0 0 0 0.92549 0 0 0 0 0.980392 0 0 0 0.5 0"/>
<feBlend mode="normal" in2="BackgroundImageFix" result="effect1_dropShadow_462_8844"/>
<feBlend mode="normal" in="SourceGraphic" in2="effect1_dropShadow_462_8844" result="shape"/>
</filter>
<clipPath id="clip0_462_8844">
<rect width="12.96" height="12.96" fill="white" transform="translate(17.124 51.6085)"/>
</clipPath>
<clipPath id="clip1_462_8844">
<rect width="12.96" height="12.96" fill="white" transform="translate(34.8838 51.6085)"/>
</clipPath>
<clipPath id="clip2_462_8844">
<rect width="12.96" height="12.96" fill="white" transform="translate(52.6436 51.6085)"/>
</clipPath>
</defs>
</svg>
