<svg width="104" height="82" viewBox="0 0 104 82" fill="none" xmlns="http://www.w3.org/2000/svg">
<g clip-path="url(#clip0_437_9632)">
<path d="M0.75 21.625V57.375C0.75 60.6902 2.06696 63.8696 4.41117 66.2138C6.75537 68.558 9.93479 69.875 13.25 69.875H75.75C79.0652 69.875 82.2446 68.558 84.5888 66.2138C86.933 63.8696 88.25 60.6902 88.25 57.375V21.625L51.05 44.5125C49.0802 45.7244 46.8128 46.366 44.5 46.366C42.1872 46.366 39.9198 45.7244 37.95 44.5125L0.75 21.625Z" fill="#3843D0"/>
<path d="M88.25 14.2833V13.625C88.25 10.3098 86.933 7.13037 84.5888 4.78617C82.2446 2.44196 79.0652 1.125 75.75 1.125H13.25C9.93479 1.125 6.75537 2.44196 4.41117 4.78617C2.06696 7.13037 0.75 10.3098 0.75 13.625V14.2833L41.225 39.1917C42.2099 39.7976 43.3436 40.1184 44.5 40.1184C45.6564 40.1184 46.7901 39.7976 47.775 39.1917L88.25 14.2833Z" fill="#3843D0"/>
<rect x="63.5" y="41.5" width="40" height="40" rx="20" fill="white"/>
<path fill-rule="evenodd" clip-rule="evenodd" d="M83.5 77.5C92.3366 77.5 99.5 70.3366 99.5 61.5C99.5 52.6634 92.3366 45.5 83.5 45.5C74.6634 45.5 67.5 52.6634 67.5 61.5C67.5 70.3366 74.6634 77.5 83.5 77.5ZM91.2131 57.8823C91.7004 57.2123 91.5522 56.2742 90.8823 55.7869C90.2123 55.2996 89.2742 55.4478 88.7869 56.1177L81.8194 65.6981L78.0607 61.9393C77.4749 61.3536 76.5251 61.3536 75.9393 61.9393C75.3536 62.5251 75.3536 63.4749 75.9393 64.0607L80.9393 69.0607C81.2495 69.3709 81.68 69.5297 82.1173 69.4954C82.5547 69.4611 82.9551 69.237 83.2131 68.8823L91.2131 57.8823Z" fill="#027A48"/>
</g>
<defs>
<clipPath id="clip0_437_9632">
<rect width="103" height="81" fill="white" transform="translate(0.5 0.5)"/>
</clipPath>
</defs>
</svg>
