<svg width="24" height="24" viewBox="0 0 24 24" fill="none" xmlns="http://www.w3.org/2000/svg">
<path fill-rule="evenodd" clip-rule="evenodd" d="M21 8.5C21.0001 9.25847 20.7128 9.98881 20.1961 10.544C19.6794 11.0993 18.9715 11.4381 18.215 11.4925L16.6895 13.0175C17.117 13.741 17.3095 14.701 17.404 15.7685C17.5 16.853 17.5 18.121 17.5 19.483V20H16.5V19.5C16.5 18.118 16.5 16.8925 16.408 15.857C16.3275 14.95 16.1805 14.2435 15.9365 13.7305C15.338 13.6505 14.7915 13.3495 14.3235 12.9785C13.7715 12.5415 13.2805 11.971 12.8765 11.421C12.4886 10.8882 12.137 10.33 11.824 9.75C11.152 10.215 10.2465 10.5 9.25 10.5C7.179 10.5 5.5 9.269 5.5 7.75C5.5 6.3535 6.919 5.2 8.7575 5.0235C9.3985 3.846 11.1675 3 13.25 3C15.604 3 17.558 4.0815 17.9345 5.5005L18 5.5C18.7956 5.5 19.5587 5.81607 20.1213 6.37868C20.6839 6.94129 21 7.70435 21 8.5ZM15.0135 8.7865C14.4367 8.92988 13.8444 9.00159 13.25 9C13.033 9 12.819 8.991 12.61 8.973L12.572 9.027C12.626 9.131 12.697 9.2655 12.784 9.4205C13.0698 9.93496 13.3885 10.4305 13.738 10.904V10.831C14.2905 10.831 14.8705 10.5325 15.3515 10.177C15.3885 10.15 15.4245 10.123 15.459 10.0955C15.21 9.7001 15.0574 9.25171 15.0135 8.7865ZM16.1265 10.843C16.381 11.0469 16.6671 11.2078 16.9735 11.3195L15.6635 12.6295C15.431 12.5355 15.1905 12.3895 14.944 12.1945C14.7672 12.0531 14.5997 11.9004 14.4425 11.7375C15.034 11.5845 15.5575 11.268 15.9455 10.982C16.0085 10.9355 16.069 10.889 16.1265 10.843Z" fill="#23769E"/>
<path d="M7.752 14.001C8.08352 14.0007 8.40136 13.8688 8.63559 13.6342C8.86982 13.3995 9.00127 13.0815 9.001 12.75C9.00074 12.4185 8.86878 12.1006 8.63418 11.8664C8.39957 11.6322 8.08152 11.5007 7.75 11.501C7.41848 11.5012 7.10064 11.6332 6.86641 11.8678C6.75043 11.984 6.65846 12.1218 6.59577 12.2735C6.53307 12.4253 6.50087 12.5878 6.501 12.752C6.50113 12.9161 6.53359 13.0786 6.59653 13.2303C6.65947 13.3819 6.75166 13.5196 6.86782 13.6356C7.10243 13.8698 7.42048 14.0012 7.752 14.001ZM4.252 16.001C4.58352 16.0007 4.90136 15.8688 5.13559 15.6342C5.36982 15.3995 5.50127 15.0815 5.501 14.75C5.50073 14.4185 5.36878 14.1006 5.13418 13.8664C4.89957 13.6322 4.58152 13.5007 4.25 13.501C3.91848 13.5012 3.60064 13.6332 3.36641 13.8678C3.13218 14.1024 3.00073 14.4205 3.001 14.752C3.00127 15.0835 3.13322 15.4013 3.36782 15.6356C3.60243 15.8698 3.92048 16.0012 4.252 16.001ZM14.001 14.75C14.0011 14.9141 13.9689 15.0767 13.9062 15.2284C13.8435 15.3801 13.7516 15.518 13.6356 15.6342C13.5196 15.7503 13.3819 15.8425 13.2303 15.9054C13.0787 15.9684 12.9162 16.0008 12.752 16.001C12.4205 16.0012 12.1024 15.8698 11.8678 15.6356C11.6332 15.4013 11.5013 15.0835 11.501 14.752C11.5009 14.5878 11.5331 14.4253 11.5958 14.2735C11.6585 14.1218 11.7504 13.984 11.8664 13.8678C12.1006 13.6332 12.4185 13.5012 12.75 13.501C13.0815 13.5007 13.3996 13.6322 13.6342 13.8664C13.8688 14.1006 14.0007 14.4185 14.001 14.75ZM7.5 14.5C7.76522 14.5 8.01957 14.6053 8.20711 14.7929C8.39464 14.9804 8.5 15.2348 8.5 15.5V16.5H9.5C9.76522 16.5 10.0196 16.6053 10.2071 16.7929C10.3946 16.9804 10.5 17.2348 10.5 17.5C10.5 17.7652 10.3946 18.0195 10.2071 18.2071C10.0196 18.3946 9.76522 18.5 9.5 18.5H7.5C7.23478 18.5 6.98043 18.3946 6.79289 18.2071C6.60536 18.0195 6.5 17.7652 6.5 17.5V15.5C6.5 15.2348 6.60536 14.9804 6.79289 14.7929C6.98043 14.6053 7.23478 14.5 7.5 14.5ZM5 17.5C5 17.2348 4.89464 16.9804 4.70711 16.7929C4.51957 16.6053 4.26522 16.5 4 16.5C3.73478 16.5 3.48043 16.6053 3.29289 16.7929C3.10536 16.9804 3 17.2348 3 17.5V20C3 20.2652 3.10536 20.5195 3.29289 20.7071C3.48043 20.8946 3.73478 21 4 21H6C6.26522 21 6.51957 20.8946 6.70711 20.7071C6.89464 20.5195 7 20.2652 7 20C7 19.7348 6.89464 19.4804 6.70711 19.2929C6.51957 19.1053 6.26522 19 6 19H5V17.5ZM13 16.5C12.7348 16.5 12.4804 16.6053 12.2929 16.7929C12.1054 16.9804 12 17.2348 12 17.5V19H11C10.7348 19 10.4804 19.1053 10.2929 19.2929C10.1054 19.4804 10 19.7348 10 20C10 20.2652 10.1054 20.5195 10.2929 20.7071C10.4804 20.8946 10.7348 21 11 21H13C13.2652 21 13.5196 20.8946 13.7071 20.7071C13.8946 20.5195 14 20.2652 14 20V17.5C14 17.2348 13.8946 16.9804 13.7071 16.7929C13.5196 16.6053 13.2652 16.5 13 16.5Z" fill="#23769E"/>
</svg>
