<svg width="24" height="24" viewBox="0 0 24 24" fill="none" xmlns="http://www.w3.org/2000/svg">
<path d="M10.8177 9.1275C10.1446 9.62679 9.32931 9.8975 8.49122 9.9C7.61897 9.9 6.81873 9.6075 6.16398 9.1275C5.60148 9.59625 5.04047 10.2675 4.58147 11.0947C3.51422 13.017 3.39647 14.9887 4.31897 15.5002C4.72997 15.7342 5.16347 15.5587 5.61047 15.1282C5.52679 15.5921 5.48487 16.0624 5.48522 16.5337C5.48522 18.7372 6.34022 20.5177 7.39247 20.5177C8.02697 20.5177 8.34122 19.869 8.49197 18.8767C8.64197 19.8622 8.95697 20.5177 9.58697 20.5177C10.6347 20.5177 11.4965 18.7365 11.4965 16.5337C11.4965 16.0387 11.45 15.5662 11.3705 15.129C11.8205 15.5602 12.2525 15.7387 12.665 15.5017C13.5852 14.9902 13.466 13.0192 12.3995 11.0962C11.942 10.2682 11.3795 9.59775 10.817 9.129L10.8177 9.1275ZM8.49047 9.15C8.91207 9.14985 9.3295 9.06667 9.71895 8.90519C10.1084 8.74372 10.4622 8.50712 10.7602 8.20891C11.0582 7.91069 11.2946 7.5567 11.4558 7.16714C11.617 6.77758 11.6999 6.36009 11.6997 5.9385C11.6996 5.51691 11.6164 5.09947 11.4549 4.71003C11.2934 4.32058 11.0568 3.96676 10.7586 3.66875C10.4604 3.37074 10.1064 3.13439 9.71687 2.97319C9.32731 2.81199 8.90982 2.7291 8.48822 2.72925C7.63658 2.72955 6.81994 3.06815 6.21795 3.67056C5.61595 4.27297 5.27793 5.08986 5.27822 5.9415C5.27852 6.79314 5.61712 7.60979 6.21954 8.21178C6.82195 8.81377 7.63883 9.1518 8.49047 9.1515V9.15ZM16.4907 13.2525C17.6217 13.2525 18.5397 12.3345 18.5397 11.202C18.5397 10.0695 17.6202 9.15 16.49 9.15C15.9458 9.1502 15.424 9.36645 15.0392 9.75124C14.6544 10.136 14.4382 10.6578 14.438 11.202C14.4384 11.7462 14.6548 12.2679 15.0397 12.6525C15.4247 13.0372 15.9466 13.2525 16.4907 13.2525ZM18.9882 14.4952C18.6957 13.9665 18.3372 13.5375 17.9772 13.2375C17.5572 13.545 17.0472 13.7325 16.49 13.7325C15.932 13.7325 15.4205 13.545 15.0027 13.2375C14.6427 13.5375 14.2842 13.9665 13.9902 14.4952C13.3077 15.7237 13.2327 16.9837 13.8222 17.3107C14.0847 17.4607 14.3622 17.3482 14.6472 17.0737C14.5951 17.3701 14.569 17.6705 14.5692 17.9715C14.5692 19.3815 15.1152 20.5192 15.788 20.5192C16.193 20.5192 16.3955 20.1045 16.4915 19.4707C16.5875 20.1007 16.7885 20.5185 17.192 20.5185C17.8617 20.5185 18.4122 19.38 18.4122 17.9715C18.4122 17.6565 18.3822 17.3535 18.3312 17.0745C18.6185 17.3497 18.8952 17.4645 19.1592 17.3122C19.7457 16.9867 19.6692 15.726 18.9882 14.4975V14.4952Z" fill="#0620AA"/>
</svg>
