<svg width="24" height="24" viewBox="0 0 24 24" fill="none" xmlns="http://www.w3.org/2000/svg">
<path d="M12 10C13.0609 10 14.0783 9.57857 14.8284 8.82843C15.5786 8.07828 16 7.06087 16 6C16 4.93913 15.5786 3.92172 14.8284 3.17157C14.0783 2.42143 13.0609 2 12 2C10.9391 2 9.92172 2.42143 9.17157 3.17157C8.42143 3.92172 8 4.93913 8 6C8 7.06087 8.42143 8.07828 9.17157 8.82843C9.92172 9.57857 10.9391 10 12 10Z" fill="#01126C"/>
<path d="M2.72799 5.81787C2.70527 5.72109 2.66354 5.62979 2.60522 5.54928C2.5469 5.46877 2.47316 5.40066 2.38828 5.34891C2.3034 5.29715 2.20908 5.26279 2.11081 5.24782C2.01253 5.23284 1.91225 5.23755 1.81581 5.26168C1.71937 5.28581 1.62869 5.32887 1.54904 5.38835C1.46939 5.44784 1.40236 5.52257 1.35185 5.60819C1.30134 5.69382 1.26836 5.78863 1.25482 5.88711C1.24128 5.9856 1.24746 6.0858 1.27299 6.18187L1.65499 7.70987C1.99977 9.08877 2.69663 10.3545 3.67737 11.3833C4.65812 12.4121 5.88914 13.1686 7.24999 13.5789V18.0519C7.24999 18.9499 7.24999 19.6999 7.32999 20.2939C7.41399 20.9219 7.59999 21.4889 8.05599 21.9439C8.51099 22.3999 9.07799 22.5859 9.70599 22.6699C10.301 22.7499 11.05 22.7499 11.948 22.7499H12.052C12.951 22.7499 13.7 22.7499 14.295 22.6699C14.922 22.5859 15.489 22.3999 15.945 21.9439C16.4 21.4889 16.585 20.9219 16.67 20.2939C16.75 19.6999 16.75 18.9499 16.75 18.0519V13.8589C17.2412 14.0054 17.6788 14.2926 18.0086 14.685C18.3384 15.0774 18.5461 15.5578 18.606 16.0669L19.256 21.5869C19.2848 21.7795 19.3875 21.9534 19.5423 22.0717C19.6971 22.19 19.8918 22.2434 20.0853 22.2207C20.2787 22.1979 20.4558 22.1008 20.5789 21.9499C20.702 21.7989 20.7616 21.606 20.745 21.4119L20.095 15.8919C19.9769 14.8886 19.4947 13.9636 18.7399 13.2923C17.9851 12.621 17.0101 12.2501 16 12.2499H8.08499C6.88534 11.9682 5.78645 11.3615 4.90887 10.4965C4.03128 9.6314 3.40889 8.54135 3.10999 7.34587L2.72799 5.81787Z" fill="#01126C"/>
</svg>
