<?xml version="1.0" standalone="no"?>
<!DOCTYPE svg PUBLIC "-//W3C//DTD SVG 20010904//EN"
 "http://www.w3.org/TR/2001/REC-SVG-20010904/DTD/svg10.dtd">
<svg version="1.0" xmlns="http://www.w3.org/2000/svg"
 width="200.000000pt" height="200.000000pt" viewBox="0 0 200.000000 200.000000"
 preserveAspectRatio="xMidYMid meet">

<g transform="translate(0.000000,200.000000) scale(0.100000,-0.100000)"
fill="#000000" stroke="none">
<path d="M665 1832 c-16 -11 -60 -53 -98 -95 -59 -66 -77 -79 -145 -107 -42
-18 -92 -41 -110 -52 -36 -22 -72 -84 -71 -120 1 -25 4 -19 13 24 12 51 60 93
155 132 81 34 98 45 156 109 91 99 118 117 180 117 27 0 75 -7 105 -15 30 -8
80 -15 110 -15 30 0 80 7 110 15 78 21 146 19 185 -5 17 -11 53 -47 80 -80 55
-69 82 -88 186 -130 101 -42 135 -76 150 -150 6 -32 7 -32 8 -7 2 41 -33 102
-71 125 -18 11 -68 34 -111 52 -68 28 -86 42 -145 107 -37 41 -81 83 -98 94
-38 23 -106 25 -184 4 -30 -8 -80 -15 -110 -15 -30 0 -80 7 -110 15 -76 20
-148 19 -185 -3z"/>
<path d="M233 1380 c0 -30 2 -43 4 -27 2 15 2 39 0 55 -2 15 -4 2 -4 -28z"/>
<path d="M1683 1360 c0 -30 2 -43 4 -27 2 15 2 39 0 55 -2 15 -4 2 -4 -28z"/>
<path d="M221 1306 c0 -10 -26 -65 -57 -123 -52 -96 -56 -109 -52 -156 3 -39
16 -71 47 -125 24 -40 49 -89 57 -110 8 -22 13 -29 14 -17 0 11 -23 61 -51
110 -38 66 -53 104 -56 141 -5 48 -1 59 52 158 31 58 54 114 52 123 -4 16 -5
16 -6 -1z"/>
<path d="M1690 1288 c0 -8 16 -41 36 -74 99 -164 99 -184 0 -348 -20 -33 -36
-66 -36 -74 0 -8 13 9 28 39 16 30 43 79 60 109 23 39 32 68 32 100 0 32 -9
61 -32 100 -17 30 -44 79 -60 109 -15 30 -28 47 -28 39z"/>
<path d="M781 1104 c0 -11 3 -14 6 -6 3 7 2 16 -1 19 -3 4 -6 -2 -5 -13z"/>
<path d="M831 1074 c0 -11 3 -14 6 -6 3 7 2 16 -1 19 -3 4 -6 -2 -5 -13z"/>
<path d="M771 1034 c0 -11 3 -14 6 -6 3 7 2 16 -1 19 -3 4 -6 -2 -5 -13z"/>
<path d="M761 904 c0 -11 3 -14 6 -6 3 7 2 16 -1 19 -3 4 -6 -2 -5 -13z"/>
<path d="M1683 720 c0 -30 2 -43 4 -27 2 15 2 39 0 55 -2 15 -4 2 -4 -28z"/>
<path d="M233 700 c0 -30 2 -43 4 -27 2 15 2 39 0 55 -2 15 -4 2 -4 -28z"/>
<path d="M1671 627 c-3 -69 -47 -113 -158 -160 -100 -42 -116 -54 -187 -139
-40 -47 -68 -71 -99 -83 -40 -15 -48 -15 -117 1 -95 23 -205 23 -300 0 -104
-24 -133 -12 -234 98 -70 78 -83 87 -166 122 -96 39 -144 81 -156 132 -9 43
-12 49 -13 24 -1 -33 34 -96 64 -116 14 -9 63 -33 108 -51 73 -31 91 -45 172
-129 105 -109 121 -115 230 -89 89 22 201 22 290 0 109 -26 125 -19 230 89 81
84 99 97 172 128 45 19 94 43 108 52 34 22 67 88 62 122 l-4 27 -2 -28z"/>
</g>
</svg>
